<svg width="960" height="860" viewBox="0 0 960 860" fill="none" xmlns="http://www.w3.org/2000/svg" role="img" aria-labelledby="title desc">
  <title id="title">Ilustración pediátrica</title>
  <desc id="desc">Ilustración abstracta de consultorio pediátrico con iconos amigables.</desc>
  <rect width="960" height="860" rx="70" fill="#F9FBF8"/>
  <circle cx="690" cy="220" r="140" fill="#D6C9A6" fill-opacity="0.34"/>
  <circle cx="190" cy="680" r="170" fill="#93AA92" fill-opacity="0.28"/>
  <rect x="150" y="170" width="660" height="520" rx="44" fill="white" stroke="#D2DCD0" stroke-width="8"/>
  <rect x="210" y="250" width="190" height="190" rx="28" fill="#EFF5EE"/>
  <rect x="430" y="250" width="320" height="44" rx="12" fill="#ECF3EA"/>
  <rect x="430" y="322" width="270" height="36" rx="12" fill="#F2F6EF"/>
  <rect x="430" y="386" width="220" height="36" rx="12" fill="#F2F6EF"/>
  <rect x="210" y="478" width="540" height="42" rx="14" fill="#E9F1E8"/>
  <rect x="210" y="544" width="420" height="42" rx="14" fill="#EFE6D1"/>
  <path d="M305 280V318C305 342.853 325.147 363 350 363C374.853 363 395 342.853 395 318V280" stroke="#7C9579" stroke-width="10" stroke-linecap="round"/>
  <circle cx="305" cy="280" r="13" fill="#7C9579"/>
  <circle cx="395" cy="280" r="13" fill="#7C9579"/>
  <path d="M350 363V390C350 399.389 357.611 407 367 407H378" stroke="#7C9579" stroke-width="10" stroke-linecap="round"/>
  <circle cx="389" cy="407" r="11" stroke="#A9B89A" stroke-width="6" fill="#F9FBF8"/>
</svg>
