<svg width="760" height="980" viewBox="0 0 760 980" fill="none" xmlns="http://www.w3.org/2000/svg" role="img" aria-labelledby="title desc">
  <title id="title">Retrato ilustrado doctora</title>
  <desc id="desc">Ilustración de pediatra con estilo amigable.</desc>
  <rect width="760" height="980" rx="58" fill="#F3F7F1"/>
  <circle cx="380" cy="280" r="164" fill="#E9DCC0"/>
  <circle cx="380" cy="250" r="130" fill="#D8B68E"/>
  <path d="M250 228C250 155.099 309.099 96 382 96C454.901 96 514 155.099 514 228V282H250V228Z" fill="#A98A65"/>
  <circle cx="332" cy="256" r="8" fill="#3F352C"/>
  <circle cx="426" cy="256" r="8" fill="#3F352C"/>
  <path d="M340 320C352.5 336.5 408 336.5 420 320" stroke="#8A644C" stroke-width="8" stroke-linecap="round"/>
  <rect x="190" y="448" width="380" height="422" rx="52" fill="white"/>
  <path d="M302 534H458V870H302V534Z" fill="#F6F9F4"/>
  <path d="M380 528C430.258 528 471 487.258 471 437H289C289 487.258 329.742 528 380 528Z" fill="#D8B68E"/>
  <path d="M275 590L380 655L485 590V870H275V590Z" fill="#EEF4EC"/>
  <rect x="355" y="710" width="50" height="160" rx="14" fill="#D8C8A6"/>
  <path d="M230 610C230 577.967 255.967 552 288 552H472C504.033 552 530 577.967 530 610V870H230V610Z" fill="#FFFFFF" stroke="#D2DDCF" stroke-width="6"/>
  <path d="M275 636V684C275 742.542 322.458 790 381 790C439.542 790 487 742.542 487 684V636" stroke="#7C9579" stroke-width="12" stroke-linecap="round"/>
  <circle cx="275" cy="636" r="16" fill="#7C9579"/>
  <circle cx="487" cy="636" r="16" fill="#7C9579"/>
  <path d="M381 790V836C381 852.569 394.431 866 411 866H424" stroke="#7C9579" stroke-width="12" stroke-linecap="round"/>
  <circle cx="440" cy="866" r="15" stroke="#A9B89A" stroke-width="7" fill="#F3F7F1"/>
</svg>
